<svg width="14" height="14" viewBox="0 0 14 14" fill="none" xmlns="http://www.w3.org/2000/svg">
<g clip-path="url(#clip0_111_377)">
<path d="M0.63637 6.01807H11.8276L8.45926 2.64977C8.39848 2.59106 8.35 2.52084 8.31665 2.4432C8.2833 2.36556 8.26575 2.28206 8.26501 2.19756C8.26428 2.11307 8.28038 2.02927 8.31238 1.95106C8.34437 1.87285 8.39163 1.8018 8.45138 1.74205C8.51113 1.6823 8.58218 1.63505 8.66039 1.60305C8.73859 1.57105 8.82239 1.55495 8.90689 1.55569C8.99138 1.55642 9.07489 1.57398 9.15253 1.60733C9.23017 1.64068 9.30039 1.68916 9.35909 1.74994L13.8137 6.20453C13.933 6.32387 14 6.4857 14 6.65444C14 6.82318 13.933 6.98502 13.8137 7.10436L9.35909 11.5589C9.23907 11.6749 9.07832 11.739 8.91147 11.7376C8.74461 11.7361 8.585 11.6692 8.46702 11.5512C8.34903 11.4332 8.2821 11.2736 8.28065 11.1067C8.2792 10.9399 8.34334 10.7791 8.45926 10.6591L11.8276 7.29081H0.63637C0.467594 7.29081 0.30573 7.22377 0.186388 7.10442C0.0670452 6.98508 0 6.82322 0 6.65444C0 6.48567 0.0670452 6.3238 0.186388 6.20446C0.30573 6.08512 0.467594 6.01807 0.63637 6.01807Z" fill="#1A1F25"/>
</g>
<defs>
<clipPath id="clip0_111_377">
<rect width="14" height="14" fill="white" transform="matrix(-1 0 0 1 14 0)"/>
</clipPath>
</defs>
</svg>
