<svg width="18" height="18" viewBox="0 0 18 18" fill="none" xmlns="http://www.w3.org/2000/svg">
<g clip-path="url(#clip0_111_339)">
<path d="M17.1818 7.73738H2.79312L7.1238 3.4067C7.20195 3.33123 7.26428 3.24095 7.30716 3.14112C7.35004 3.0413 7.37261 2.93394 7.37356 2.8253C7.3745 2.71666 7.3538 2.60892 7.31266 2.50837C7.27152 2.40782 7.21077 2.31646 7.13394 2.23964C7.05712 2.16282 6.96577 2.10207 6.86522 2.06093C6.76467 2.01979 6.65693 1.99909 6.54829 2.00003C6.43965 2.00097 6.33229 2.02355 6.23246 2.06643C6.13264 2.10931 6.04236 2.17164 5.96688 2.24978L0.239555 7.97711C0.086168 8.13055 0 8.33862 0 8.55557C0 8.77253 0.086168 8.9806 0.239555 9.13403L5.96688 14.8614C6.1212 15.0104 6.32787 15.0929 6.5424 15.091C6.75693 15.0891 6.96214 15.0031 7.11384 14.8514C7.26554 14.6997 7.35158 14.4945 7.35345 14.28C7.35531 14.0654 7.27284 13.8588 7.1238 13.7044L2.79312 9.37376H17.1818C17.3988 9.37376 17.6069 9.28756 17.7604 9.13412C17.9138 8.98068 18 8.77257 18 8.55557C18 8.33857 17.9138 8.13047 17.7604 7.97702C17.6069 7.82358 17.3988 7.73738 17.1818 7.73738Z" fill="white"/>
</g>
<defs>
<clipPath id="clip0_111_339">
<rect width="18" height="18" fill="white"/>
</clipPath>
</defs>
</svg>
