<svg width="18" height="18" viewBox="0 0 18 18" fill="none" xmlns="http://www.w3.org/2000/svg">
<path d="M10.9688 13.3594C11.1179 13.3594 11.261 13.3001 11.3665 13.1946C11.472 13.0891 11.5312 12.9461 11.5312 12.7969V7.17188C11.5312 7.02269 11.472 6.87962 11.3665 6.77413C11.261 6.66864 11.1179 6.60938 10.9688 6.60938C10.8196 6.60938 10.6765 6.66864 10.571 6.77413C10.4655 6.87962 10.4062 7.02269 10.4062 7.17188V12.7969C10.4062 12.9461 10.4655 13.0891 10.571 13.1946C10.6765 13.3001 10.8196 13.3594 10.9688 13.3594ZM7.03125 13.3594C7.18043 13.3594 7.32351 13.3001 7.429 13.1946C7.53449 13.0891 7.59375 12.9461 7.59375 12.7969V7.17188C7.59375 7.02269 7.53449 6.87962 7.429 6.77413C7.32351 6.66864 7.18043 6.60938 7.03125 6.60938C6.88207 6.60938 6.73899 6.66864 6.6335 6.77413C6.52801 6.87962 6.46875 7.02269 6.46875 7.17188V12.7969C6.46875 12.9461 6.52801 13.0891 6.6335 13.1946C6.73899 13.3001 6.88207 13.3594 7.03125 13.3594ZM11.25 2.39062C11.3992 2.39062 11.5423 2.33136 11.6477 2.22587C11.7532 2.12038 11.8125 1.97731 11.8125 1.82812C11.8125 1.67894 11.7532 1.53587 11.6477 1.43038C11.5423 1.32489 11.3992 1.26563 11.25 1.26562H6.75C6.60082 1.26563 6.45774 1.32489 6.35225 1.43038C6.24676 1.53587 6.1875 1.67894 6.1875 1.82812C6.1875 1.97731 6.24676 2.12038 6.35225 2.22587C6.45774 2.33136 6.60082 2.39062 6.75 2.39062H11.25Z" fill="white"/>
<path d="M2.8125 2.95312C2.66332 2.95312 2.52024 3.01239 2.41475 3.11788C2.30926 3.22337 2.25 3.36644 2.25 3.51562C2.25 3.66481 2.30926 3.80788 2.41475 3.91337C2.52024 4.01886 2.66332 4.07812 2.8125 4.07812H3.375V14.4281C3.375 15.6994 4.41 16.7344 5.68125 16.7344H12.3187C13.59 16.7344 14.625 15.6994 14.625 14.4281V4.07812H15.1875C15.3367 4.07812 15.4798 4.01886 15.5852 3.91337C15.6907 3.80788 15.75 3.66481 15.75 3.51562C15.75 3.36644 15.6907 3.22337 15.5852 3.11788C15.4798 3.01239 15.3367 2.95312 15.1875 2.95312H3.9375H2.8125ZM13.5 4.07812V14.4281C13.5 14.7414 13.3755 15.0419 13.154 15.2634C12.9325 15.4849 12.632 15.6094 12.3187 15.6094H5.68125C5.36796 15.6094 5.06751 15.4849 4.84598 15.2634C4.62445 15.0419 4.5 14.7414 4.5 14.4281V4.07812H13.5Z" fill="white"/>
</svg>
