<svg width="14" height="14" viewBox="0 0 14 14" fill="none" xmlns="http://www.w3.org/2000/svg">
<g clip-path="url(#clip0_111_261)">
<path d="M1.37119 10.12C1.26464 10.1199 1.1605 10.0883 1.07192 10.0291C0.983335 9.96991 0.914295 9.88578 0.873526 9.78734C0.832756 9.6889 0.822087 9.58059 0.842866 9.47609C0.863646 9.37159 0.914941 9.2756 0.990268 9.20025L9.40982 0.780695C9.45953 0.729236 9.51898 0.68819 9.58471 0.659953C9.65044 0.631716 9.72114 0.616853 9.79268 0.616231C9.86422 0.61561 9.93517 0.629242 10.0014 0.656332C10.0676 0.683423 10.1278 0.723429 10.1783 0.774017C10.2289 0.824604 10.2689 0.884761 10.296 0.950975C10.3231 1.01719 10.3367 1.08814 10.3361 1.15968C10.3355 1.23121 10.3206 1.30191 10.2924 1.36765C10.2642 1.43338 10.2231 1.49283 10.1717 1.54253L1.75211 9.96209C1.64704 10.0672 1.50912 10.12 1.37119 10.12Z" fill="#1A1F25"/>
<path d="M0.539213 14C0.458818 14 0.379428 13.9821 0.306862 13.9475C0.234297 13.9129 0.170396 13.8625 0.119843 13.8C0.0692909 13.7374 0.033369 13.6644 0.0147108 13.5862C-0.00394739 13.508 -0.00486883 13.4266 0.0120141 13.348L0.844433 9.46798C0.859086 9.39862 0.887285 9.33283 0.927413 9.27438C0.967542 9.21593 1.01881 9.16598 1.07828 9.12739C1.13775 9.08879 1.20425 9.06231 1.27398 9.04947C1.3437 9.03663 1.41527 9.03767 1.48459 9.05254C1.55391 9.06741 1.61962 9.09582 1.67794 9.13613C1.73626 9.17644 1.78605 9.22787 1.82445 9.28746C1.86286 9.34705 1.88913 9.41364 1.90176 9.4834C1.91438 9.55316 1.91311 9.62473 1.89802 9.694L1.0656 13.574C1.03979 13.6945 0.973461 13.8025 0.877674 13.88C0.781886 13.9575 0.662428 13.9999 0.539213 14ZM4.41872 13.1675C4.31217 13.1675 4.20803 13.1359 4.11945 13.0767C4.03087 13.0175 3.96183 12.9334 3.92106 12.8349C3.88029 12.7365 3.86962 12.6282 3.8904 12.5237C3.91118 12.4192 3.96247 12.3232 4.0378 12.2478L12.4574 3.82855C12.5071 3.77709 12.5665 3.73604 12.6322 3.7078C12.698 3.67957 12.7687 3.6647 12.8402 3.66408C12.9118 3.66346 12.9827 3.67709 13.0489 3.70418C13.1151 3.73127 13.1753 3.77128 13.2259 3.82187C13.2765 3.87246 13.3165 3.93261 13.3436 3.99883C13.3706 4.06504 13.3843 4.13599 13.3837 4.20753C13.383 4.27907 13.3682 4.34976 13.3399 4.4155C13.3117 4.48123 13.2707 4.54068 13.2192 4.59038L4.79991 13.0097C4.74991 13.0598 4.69049 13.0996 4.62507 13.1267C4.55965 13.1538 4.48952 13.1676 4.41872 13.1675Z" fill="#1A1F25"/>
<path d="M0.538227 14C0.405465 13.9994 0.27758 13.9499 0.179082 13.8609C0.0805837 13.7719 0.0184007 13.6496 0.00445023 13.5176C-0.00950022 13.3856 0.0257632 13.253 0.103482 13.1454C0.181201 13.0378 0.295909 12.9626 0.425622 12.9343L4.30567 12.1019C4.44519 12.0724 4.5907 12.0994 4.71032 12.1771C4.82994 12.2547 4.91391 12.3766 4.94382 12.516C4.97373 12.6554 4.94714 12.801 4.86989 12.9209C4.79264 13.0408 4.67102 13.1251 4.53168 13.1555L0.651641 13.9879C0.614386 13.996 0.576359 14.0001 0.538227 14ZM11.3144 6.27197C11.2436 6.2721 11.1736 6.25822 11.1082 6.23113C11.0428 6.20403 10.9834 6.16426 10.9335 6.11411L7.88588 3.06648C7.83442 3.01678 7.79337 2.95733 7.76514 2.8916C7.7369 2.82586 7.72203 2.75516 7.72141 2.68362C7.72079 2.61208 7.73442 2.54114 7.76151 2.47492C7.7886 2.40871 7.82861 2.34855 7.8792 2.29796C7.92979 2.24738 7.98994 2.20737 8.05616 2.18028C8.12237 2.15319 8.19332 2.13956 8.26486 2.14018C8.3364 2.1408 8.40709 2.15566 8.47283 2.1839C8.53856 2.21214 8.59801 2.25318 8.64772 2.30464L11.6953 5.35227C11.7707 5.42762 11.822 5.52361 11.8427 5.62811C11.8635 5.73261 11.8529 5.84092 11.8121 5.93935C11.7713 6.03779 11.7023 6.12193 11.6137 6.18113C11.5251 6.24034 11.421 6.27195 11.3144 6.27197ZM12.8384 4.74829C12.7317 4.74838 12.6275 4.71682 12.5388 4.65763C12.4501 4.59843 12.381 4.51425 12.3402 4.41575C12.2994 4.31725 12.2887 4.20885 12.3095 4.10428C12.3304 3.99971 12.3817 3.90367 12.4572 3.82832C12.757 3.52849 12.9221 3.12252 12.9221 2.68556C12.9221 2.24861 12.757 1.84264 12.4572 1.5428C12.1571 1.2427 11.7511 1.07757 11.3142 1.07757C10.8772 1.07757 10.4712 1.2427 10.1714 1.5428C10.1214 1.59285 10.0619 1.63254 9.99656 1.65962C9.93118 1.6867 9.86111 1.70064 9.79034 1.70064C9.71957 1.70064 9.6495 1.6867 9.58411 1.65962C9.51873 1.63254 9.45933 1.59285 9.40928 1.5428C9.35924 1.49276 9.31955 1.43336 9.29247 1.36798C9.26538 1.30259 9.25145 1.23252 9.25145 1.16175C9.25145 1.09098 9.26538 1.02091 9.29247 0.955525C9.31955 0.890144 9.35924 0.830737 9.40928 0.780696C9.91251 0.277204 10.5889 0 11.3142 0C12.0391 0 12.7158 0.277204 13.219 0.780696C13.7225 1.28392 13.9997 1.96036 13.9997 2.68556C13.9997 3.41076 13.7225 4.08721 13.219 4.59043C13.1691 4.64055 13.1098 4.6803 13.0445 4.7074C12.9791 4.73449 12.9091 4.74839 12.8384 4.74829Z" fill="#1A1F25"/>
</g>
<defs>
<clipPath id="clip0_111_261">
<rect width="14" height="14" fill="white"/>
</clipPath>
</defs>
</svg>
