<svg width="24" height="24" viewBox="0 0 24 24" fill="none" xmlns="http://www.w3.org/2000/svg">
<g clip-path="url(#clip0_217_10)">
<path d="M18.3116 24.0001C18.1055 24.0001 17.895 23.9739 17.6864 23.9194L0.816687 19.4018C-0.484675 19.0429 -1.26031 17.6968 -0.919894 16.3964L0.934556 9.28493C1.04803 8.84844 1.49424 8.58335 1.93273 8.70024C2.36918 8.81371 2.63202 9.26095 2.51758 9.69842L0.662921 16.811C0.548478 17.2495 0.80917 17.7021 1.24562 17.8222L18.1055 22.3375C18.5386 22.452 18.9858 22.1945 19.0993 21.7637L19.6752 19.4399C19.7844 19.0015 20.2273 18.7353 20.6658 18.8423C21.1044 18.9514 21.3717 19.3942 21.2635 19.8327L20.6855 22.1673C20.3941 23.2724 19.3993 24.0001 18.3117 24.0001L18.3116 24.0001Z" fill="black"/>
<path d="M22.7265 17.4546H5.81745C4.46377 17.4546 3.36292 16.3538 3.36292 15.0001V2.45453C3.36292 1.10086 4.46377 0 5.81745 0H22.7265C24.0802 0 25.181 1.10086 25.181 2.45453V15.0001C25.181 16.3538 24.0802 17.4546 22.7265 17.4546ZM5.81745 1.63635C5.36581 1.63635 4.99927 2.0029 4.99927 2.45453V15.0001C4.99927 15.4517 5.36581 15.8182 5.81745 15.8182H22.7265C23.1781 15.8182 23.5447 15.4517 23.5447 15.0001V2.45453C23.5447 2.0029 23.1781 1.63635 22.7265 1.63635H5.81745Z" fill="black"/>
<path d="M8.81755 7.63645C7.61426 7.63645 6.63567 6.65786 6.63567 5.45458C6.63567 4.2513 7.61426 3.27271 8.81755 3.27271C10.0208 3.27271 10.9992 4.2513 10.9992 5.45458C10.9992 6.65786 10.0209 7.63645 8.81755 7.63645ZM8.81755 4.90906C8.51636 4.90906 8.27203 5.15354 8.27203 5.45458C8.27203 5.75562 8.51636 6.0001 8.81755 6.0001C9.11859 6.0001 9.36286 5.75562 9.36286 5.45458C9.36286 5.15354 9.11859 4.90906 8.81755 4.90906ZM4.20293 16.3418C3.99357 16.3418 3.78407 16.2621 3.62483 16.1019C3.30523 15.7823 3.30523 15.2639 3.62483 14.9443L8.55568 10.0135C9.30196 9.26723 10.516 9.26723 11.2611 10.0135L12.58 11.3324L16.6315 6.46912C16.9937 6.03487 17.5251 5.784 18.0892 5.78083C18.6957 5.74703 19.1866 6.02285 19.5519 6.45173L24.9826 12.7876C25.277 13.1302 25.2366 13.6473 24.8941 13.9418C24.5505 14.2364 24.0345 14.196 23.7399 13.8535L18.3073 7.51541C18.2352 7.4291 18.1469 7.43349 18.0978 7.41815C18.051 7.41815 17.9603 7.43232 17.8884 7.51741L13.263 13.0703C13.1156 13.2468 12.9009 13.3539 12.6717 13.3637C12.4382 13.3767 12.2179 13.2872 12.0563 13.1248L10.1038 11.1721C9.96514 11.0334 9.85065 11.0334 9.71207 11.1721L4.78122 16.1019C4.70547 16.1781 4.61535 16.2385 4.51609 16.2797C4.41683 16.3209 4.31039 16.342 4.20293 16.3418Z" fill="black"/>
</g>
<defs>
<clipPath id="clip0_217_10">
<rect width="24" height="24" fill="white"/>
</clipPath>
</defs>
</svg>
