<svg width="18" height="18" viewBox="0 0 18 18" fill="none" xmlns="http://www.w3.org/2000/svg">
<path d="M3.23438 13.7555V16.8906H6.74561L7.40556 15.2407L5.99653 12.8923L3.23438 13.7555ZM0 13.8822L2.39062 13.1352V10.1406H0V13.8822ZM0 16.8906H2.39062V14.0191L0 14.7662V16.8906ZM11.6719 16.8906H16.3125C16.7021 16.8912 17.0798 16.7563 17.381 16.5091L11.6719 14.1468V16.8906ZM7.65436 16.8906H10.8281V14.1982L8.20712 15.5087L7.65436 16.8906ZM14.2031 11.54L12.0464 13.3886L14.2031 14.281V11.54ZM16.4531 14.0781C16.2292 14.0784 16.0105 14.1453 15.8248 14.2705C15.6391 14.3956 15.495 14.5733 15.4107 14.7807L17.8886 15.8061C17.9623 15.6136 18.0001 15.4092 18 15.2031H17.5781C17.5778 14.9049 17.4592 14.6189 17.2482 14.408C17.0373 14.1971 16.7514 14.0785 16.4531 14.0781Z" fill="#1A1F25"/>
<path d="M16.4531 8.3125C15.9684 8.31306 15.5038 8.50584 15.1611 8.84856C14.8183 9.19128 14.6256 9.65595 14.625 10.1406V15.2031C14.625 15.2404 14.6398 15.2762 14.6662 15.3026C14.6926 15.3289 14.7283 15.3438 14.7656 15.3438C14.8029 15.3438 14.8387 15.3289 14.8651 15.3026C14.8914 15.2762 14.9062 15.2404 14.9062 15.2031C14.9062 14.7929 15.0692 14.3994 15.3593 14.1093C15.6494 13.8192 16.0429 13.6562 16.4531 13.6562C16.8634 13.6562 17.2568 13.8192 17.5469 14.1093C17.837 14.3994 18 14.7929 18 15.2031V9.16813C17.8355 8.90635 17.6074 8.69055 17.3369 8.54092C17.0663 8.39128 16.7623 8.31269 16.4531 8.3125ZM9 12.9531C8.79859 12.9531 8.60382 12.881 8.45086 12.75C7.94624 12.3027 7.47067 11.8238 7.02703 11.316L6.65251 12.346L8.03577 14.6512L10.6991 13.3195L10.1775 12.1605C9.81496 12.521 9.56964 12.7325 9.54907 12.7501C9.39614 12.8812 9.20138 12.9532 9 12.9531ZM6.40237 10.5653C6.39 10.5495 6.37777 10.5339 6.36525 10.518C6.26702 10.3917 6.17227 10.2659 6.08098 10.1406H3.23438V12.8715L5.86237 12.0502L6.40237 10.5653ZM11.919 10.1406C11.8276 10.2659 11.7329 10.3917 11.6348 10.518C11.3512 10.8826 11.0683 11.2132 10.8064 11.5018L11.4034 12.8285L14.5392 10.1406H11.919Z" fill="#1A1F25"/>
<path d="M8.72543 12.4297C8.80189 12.4952 8.89929 12.5313 9 12.5313C9.10071 12.5313 9.19811 12.4952 9.27457 12.4297C10.015 11.7694 10.6935 11.0428 11.3017 10.259C12.6671 8.50357 13.3594 6.8551 13.3594 5.35938C13.3594 4.2032 12.9001 3.09437 12.0825 2.27683C11.265 1.45929 10.1562 1 9 1C7.84382 1 6.735 1.45929 5.91746 2.27683C5.09991 3.09437 4.64063 4.2032 4.64062 5.35938C4.64063 6.8551 5.33289 8.50357 6.69825 10.259C7.30647 11.0428 7.98502 11.7694 8.72543 12.4297ZM9 2.6875C9.52845 2.6875 10.045 2.8442 10.4844 3.13779C10.9238 3.43138 11.2663 3.84867 11.4685 4.33689C11.6707 4.82511 11.7236 5.36234 11.6205 5.88063C11.5174 6.39892 11.263 6.87501 10.8893 7.24868C10.5156 7.62234 10.0396 7.87682 9.52126 7.97991C9.00296 8.08301 8.46574 8.03009 7.97752 7.82787C7.4893 7.62564 7.07201 7.28318 6.77842 6.84379C6.48483 6.4044 6.32812 5.88782 6.32812 5.35938C6.32892 4.65099 6.61067 3.97185 7.11157 3.47095C7.61247 2.97005 8.29162 2.68829 9 2.6875Z" fill="#1A1F25"/>
</svg>
