<svg width="18" height="18" viewBox="0 0 18 18" fill="none" xmlns="http://www.w3.org/2000/svg">
<path d="M16.8 3.4H1.2C0.88174 3.4 0.576516 3.27357 0.351472 3.04853C0.126428 2.82348 0 2.51826 0 2.2C0 1.88174 0.126428 1.57652 0.351472 1.35147C0.576516 1.12643 0.88174 1 1.2 1H16.8C17.1183 1 17.4235 1.12643 17.6485 1.35147C17.8736 1.57652 18 1.88174 18 2.2C18 2.51826 17.8736 2.82348 17.6485 3.04853C17.4235 3.27357 17.1183 3.4 16.8 3.4ZM16.8 15.4H1.2C0.88174 15.4 0.576516 15.2736 0.351472 15.0485C0.126428 14.8235 0 14.5183 0 14.2C0 13.8817 0.126428 13.5765 0.351472 13.3515C0.576516 13.1264 0.88174 13 1.2 13H16.8C17.1183 13 17.4235 13.1264 17.6485 13.3515C17.8736 13.5765 18 13.8817 18 14.2C18 14.5183 17.8736 14.8235 17.6485 15.0485C17.4235 15.2736 17.1183 15.4 16.8 15.4ZM16.8 9.4H1.2C0.88174 9.4 0.576516 9.27357 0.351472 9.04853C0.126428 8.82348 0 8.51826 0 8.2C0 7.88174 0.126428 7.57652 0.351472 7.35147C0.576516 7.12643 0.88174 7 1.2 7H16.8C17.1183 7 17.4235 7.12643 17.6485 7.35147C17.8736 7.57652 18 7.88174 18 8.2C18 8.51826 17.8736 8.82348 17.6485 9.04853C17.4235 9.27357 17.1183 9.4 16.8 9.4Z" fill="white"/>
</svg>
