<svg xmlns="http://www.w3.org/2000/svg" width="14" height="14" viewBox="0 0 14 14" fill="none">
    <path d="M8.77734 7C8.77734 6.0184 7.9816 5.22266 7 5.22266C6.0184 5.22266 5.22266 6.0184 5.22266 7C5.22266 7.9816 6.0184 8.77734 7 8.77734C7.9816 8.77734 8.77734 7.9816 8.77734 7Z" fill="black"/>
    <path d="M8.77734 1.77734C8.77734 0.795744 7.9816 0 7 0C6.0184 0 5.22266 0.795744 5.22266 1.77734C5.22266 2.75894 6.0184 3.55469 7 3.55469C7.9816 3.55469 8.77734 2.75894 8.77734 1.77734Z" fill="black"/>
    <path d="M8.77734 12.2227C8.77734 11.2411 7.9816 10.4453 7 10.4453C6.0184 10.4453 5.22266 11.2411 5.22266 12.2227C5.22266 13.2043 6.0184 14 7 14C7.9816 14 8.77734 13.2043 8.77734 12.2227Z" fill="black"/>
</svg>