<svg width="14" height="14" viewBox="0 0 14 14" fill="none" xmlns="http://www.w3.org/2000/svg">
<g clip-path="url(#clip0_210_5)">
<path d="M3.20635 2.77624C5.27328 0.906567 8.36654 0.877979 10.4621 2.5847L8.80108 2.64759C8.58667 2.65617 8.42085 2.83342 8.42943 3.04783C8.43801 3.25652 8.60954 3.41948 8.81537 3.41948H8.82967L11.3797 3.32514C11.5884 3.31656 11.7514 3.14789 11.7514 2.93919V2.89345L11.657 0.371966C11.6485 0.157554 11.4684 -0.00825825 11.2568 0.000318242C11.0424 0.00889473 10.8766 0.186142 10.8852 0.400554L10.9452 1.98149C9.90744 1.13241 8.62955 0.640696 7.26303 0.572084C5.5706 0.486319 3.94393 1.06666 2.6889 2.20448C0.962168 3.76825 0.230308 6.1468 0.779203 8.41099C0.822086 8.58824 0.979321 8.70545 1.15371 8.70545C1.18516 8.70545 1.21375 8.70259 1.24519 8.69402C1.45103 8.64256 1.57968 8.43386 1.52822 8.22803C1.04793 6.23828 1.68831 4.14848 3.20635 2.77624ZM13.2208 5.58933C13.1694 5.38349 12.9607 5.25485 12.7548 5.30631C12.549 5.35776 12.4204 5.56646 12.4718 5.77229C12.955 7.76204 12.3117 9.85184 10.7937 11.2241C9.72734 12.1875 8.38941 12.6621 7.05719 12.6621C5.78501 12.6621 4.51569 12.2304 3.49223 11.3785L5.17322 11.2269C5.38478 11.2069 5.54201 11.0211 5.522 10.8067C5.50199 10.5923 5.31616 10.4379 5.10175 10.4579L2.56025 10.6866C2.3487 10.7066 2.19146 10.8925 2.21148 11.1069L2.44018 13.6484C2.45734 13.8485 2.62601 14 2.82327 14C2.8347 14 2.84614 14 2.85757 13.9971C3.06913 13.9771 3.22636 13.7913 3.20635 13.5769L3.06913 12.0303C4.10688 12.8708 5.37906 13.3596 6.737 13.4282C6.84564 13.434 6.95427 13.4368 7.06005 13.4368C8.63527 13.4368 10.1333 12.8593 11.3111 11.7958C13.0379 10.2321 13.7697 7.85638 13.2208 5.58933Z" fill="black"/>
</g>
<defs>
<clipPath id="clip0_210_5">
<rect width="14" height="14" fill="white"/>
</clipPath>
</defs>
</svg>
