<svg width="24" height="24" viewBox="0 0 24 24" fill="none" xmlns="http://www.w3.org/2000/svg">
<g clip-path="url(#clip0_216_2)">
<path fill-rule="evenodd" clip-rule="evenodd" d="M14.4216 21.8076C14.4216 20.9781 13.7491 20.3056 12.9196 20.3056H11.0804C10.8832 20.3056 10.6878 20.3445 10.5056 20.42C10.3234 20.4954 10.1578 20.6061 10.0183 20.7455C9.87885 20.885 9.76822 21.0506 9.69274 21.2328C9.61727 21.4151 9.57843 21.6104 9.57844 21.8076C9.57844 22.6371 10.2509 23.3096 11.0804 23.3096H12.9196C13.7491 23.3096 14.4216 22.6371 14.4216 21.8076ZM3.15755 17.9347C3.40842 17.9538 3.71194 17.9649 4.01681 17.947C4.20791 18.9159 4.72944 19.7885 5.49235 20.4157C6.25526 21.0428 7.21223 21.3857 8.19984 21.3857H8.77294C8.72208 21.6647 8.72195 21.9505 8.77256 22.2295H8.19984C6.98614 22.2295 5.81211 21.7972 4.88814 21.0102C3.96418 20.2232 3.35066 19.1329 3.15755 17.9347ZM2.72836 17.0369C1.96555 16.9083 1.27296 16.5136 0.77349 15.9229C0.274025 15.3321 -1.49308e-05 14.5836 1.34306e-09 13.81L1.34306e-09 11.8158C-1.23105e-05 11.386 0.0846218 10.9605 0.24907 10.5635C0.413518 10.1664 0.654559 9.80569 0.958431 9.50182C1.2623 9.19794 1.62305 8.95689 2.02008 8.79244C2.41711 8.62799 2.84265 8.54335 3.27239 8.54335H3.49022C3.83841 4.14854 7.51538 0.69043 12 0.69043C16.4846 0.69043 20.1616 4.14854 20.5098 8.54335H20.7276C21.1574 8.54335 21.5829 8.62799 21.9799 8.79244C22.3769 8.95689 22.7377 9.19794 23.0416 9.50182C23.3454 9.80569 23.5865 10.1664 23.7509 10.5635C23.9154 10.9605 24 11.386 24 11.8158V13.81C24 14.2397 23.9154 14.6653 23.7509 15.0623C23.5865 15.4593 23.3454 15.8201 23.0416 16.124C22.7377 16.4278 22.3769 16.6689 21.9799 16.8333C21.5829 16.9978 21.1574 17.0824 20.7276 17.0824H19.7619C19.3614 17.0824 19.0368 16.7577 19.0368 16.3573V9.22721C19.0368 5.3409 15.8863 2.19043 12 2.19043C8.11369 2.19043 4.96322 5.3409 4.96322 9.22721V16.3573C4.96322 16.64 4.80136 16.885 4.5652 17.0046C3.91514 17.2302 2.907 17.067 2.72836 17.0369Z" fill="black"/>
</g>
<defs>
<clipPath id="clip0_216_2">
<rect width="24" height="24" fill="white"/>
</clipPath>
</defs>
</svg>
